<mxfile host="app.diagrams.net" modified="2023-05-18T11:22:34.841Z" agent="Mozilla/5.0 (Windows NT 10.0; Win64; x64) AppleWebKit/537.36 (KHTML, like Gecko) Chrome/113.0.0.0 Safari/537.36" version="21.2.9" etag="uh_5pG8C7BjiTh__9O0p" type="github">
  <diagram name="Page-1" id="KUlxrYTzzNQ_r3aC8rUW">
    <mxGraphModel>
      <root>
        <mxCell id="0" />
        <mxCell id="1" parent="0" />
      </root>
    </mxGraphModel>
  </diagram>
</mxfile>
